<svg width="15" height="15" viewBox="0 0 15 15" fill="none" xmlns="http://www.w3.org/2000/svg">
<g id="Frame">
<path id="Vector" d="M7.60902 4.30006C7.48971 4.30006 7.37529 4.25267 7.29093 4.16831C7.20657 4.08395 7.15918 3.96953 7.15918 3.85023C7.15918 3.73092 7.20657 3.6165 7.29093 3.53214C7.37529 3.44778 7.48971 3.40039 7.60902 3.40039C7.72832 3.40039 7.84274 3.44778 7.9271 3.53214C8.01146 3.6165 8.05885 3.73092 8.05885 3.85023C8.05885 3.96953 8.01146 4.08395 7.9271 4.16831C7.84274 4.25267 7.72832 4.30006 7.60902 4.30006ZM7.60902 7.89875C7.48971 7.89875 7.37529 7.85135 7.29093 7.76699C7.20657 7.68263 7.15918 7.56821 7.15918 7.44891C7.15918 7.32961 7.20657 7.21519 7.29093 7.13083C7.37529 7.04647 7.48971 6.99908 7.60902 6.99908C7.72832 6.99908 7.84274 7.04647 7.9271 7.13083C8.01146 7.21519 8.05885 7.32961 8.05885 7.44891C8.05885 7.56821 8.01146 7.68263 7.9271 7.76699C7.84274 7.85135 7.72832 7.89875 7.60902 7.89875ZM7.60902 11.4974C7.48971 11.4974 7.37529 11.45 7.29093 11.3657C7.20657 11.2813 7.15918 11.1669 7.15918 11.0476C7.15918 10.9283 7.20657 10.8139 7.29093 10.7295C7.37529 10.6452 7.48971 10.5978 7.60902 10.5978C7.72832 10.5978 7.84274 10.6452 7.9271 10.7295C8.01146 10.8139 8.05885 10.9283 8.05885 11.0476C8.05885 11.1669 8.01146 11.2813 7.9271 11.3657C7.84274 11.45 7.72832 11.4974 7.60902 11.4974Z" stroke="#121212" stroke-width="0.899671" stroke-linecap="round" stroke-linejoin="round"/>
</g>
</svg>
